<svg xmlns="http://www.w3.org/2000/svg" xmlns:xlink="http://www.w3.org/1999/xlink" version="1.1" x="0px" y="0px" viewBox="0 0 100 125" style="enable-background:new 0 0 100 100;" xml:space="preserve"><g><g><path d="M36.4,95.7C39,74,39.1,50.9,53.6,33c1.1-1.4-0.7-3.3-2-2c-16.2,17.1-19.2,42-18.4,64.6C33.4,97.8,36.2,97.7,36.4,95.7    L36.4,95.7z"/></g></g><g><g><path d="M46.4,61.8c6.1,3,10.1-2.8,12.7-7.6c4.1-7.5,7.4-15.3,9.9-23.4c1.9-6,5.3-14.8,3.2-21.2c-1.8-5.5-7.7-7.1-12.7-4.8    c-3.1,1.4-5.4,4.1-7.5,6.6c-3.2,3.8-6.4,7.7-9.5,11.6c-4.9,6-9.7,12.1-12.6,19.3c-4.8,12-1.5,28.4,11.9,33c1.2,0.4,1.8-1.5,0.5-2    c-12.9-4.6-13.1-18.9-8.7-29.8C38,33.1,46.5,24.4,53.6,15.7c1.5-1.8,2.9-3.8,4.7-5.3c3.4-3.1,10-4.1,10.6,2.3    c0.4,5-1.6,10.7-2.9,15.4c-1.6,5.9-3.7,11.7-6.2,17.2c-2,4.4-6,16-12.2,13.7C46,58.5,44.8,61.1,46.4,61.8L46.4,61.8z"/></g></g><g><g><path d="M54.7,49.4c3,0.1,5.6-1.4,6.9-4.1c0.7-1.5-1.1-3.1-2.3-1.8c-1.3,1.3-3.2,2.3-5,2.6C52.3,46.4,52.8,49.4,54.7,49.4    L54.7,49.4z"/></g></g><g><g><path d="M57.9,40.2c3.3-1,5.7-2.9,7.6-5.8c0.9-1.3-1.1-2.8-2.2-1.7c-1.8,1.9-4.2,3.5-6.6,4.5C55,37.9,56.2,40.7,57.9,40.2    L57.9,40.2z"/></g></g><g><g><path d="M60.8,25.7c5.3-1.1,8.9-4.4,10.3-9.7c0.4-1.6-1.8-2.5-2.6-1.1c-2,3.2-5.5,6.3-9,7.8C57.7,23.5,59,26,60.8,25.7L60.8,25.7z    "/></g></g><g><g><path d="M37.7,45.8c0.4-4.3,0.7-8.6,1.4-12.9c0.3-1.7-2.1-2.5-2.7-0.7c-1.4,4.4-2.2,9-1.8,13.7C34.7,47.8,37.6,47.8,37.7,45.8    L37.7,45.8z"/></g></g><g><g><path d="M46.1,32.5c1.5-3.8,3-7.6,4.6-11.3c0.7-1.7-1.5-3.1-2.5-1.5c-2.4,3.8-4.1,7.6-5.3,11.9C42.3,33.8,45.4,34.5,46.1,32.5    L46.1,32.5z"/></g></g><g><g><path d="M59.1,17.1c1.5-3.2,3.5-6.3,5.9-8.9c1.2-1.2-0.4-3.4-1.9-2.4c-3.6,2.4-6.1,5.8-6.9,10.1C56,17.5,58.3,18.8,59.1,17.1    L59.1,17.1z"/></g></g><text x="0" y="115" fill="#000000" font-size="5px" font-weight="bold" font-family="'Helvetica Neue', Helvetica, Arial-Unicode, Arial, Sans-serif">Created by Daria Moskvina</text><text x="0" y="120" fill="#000000" font-size="5px" font-weight="bold" font-family="'Helvetica Neue', Helvetica, Arial-Unicode, Arial, Sans-serif">from the Noun Project</text></svg>